<svg width="1050" height="27" viewBox="0 0 1050 27" fill="none" xmlns="http://www.w3.org/2000/svg">
<path fill-rule="evenodd" clip-rule="evenodd" d="M36 8H24V15H12V22H0V27H1050V22H1038V15H1026V8H1014V0H36V8ZM39 3H57.8787L39 21.8786V3ZM324 5.12132V24H305.121L324 5.12132ZM345.879 3L327 21.8786V3H345.879ZM300 5.12132V24H281.121L300 5.12132ZM321.879 3L303 21.8786V3H321.879ZM276 5.12132V24H257.121L276 5.12132ZM297.879 3L279 21.8786V3H297.879ZM252 5.12132V24H233.121L252 5.12132ZM273.879 3L255 21.8786V3H273.879ZM228 5.12132V24H209.121L228 5.12132ZM249.879 3L231 21.8786V3H249.879ZM204 5.12132L185.121 24H204V5.12132ZM207 21.8786L225.879 3H207V21.8786ZM180 5.12132V24H161.121L180 5.12132ZM201.879 3L183 21.8786V3H201.879ZM156 5.12132L137.121 24H156V5.12132ZM159 21.8786L177.879 3H159V21.8786ZM132 5.12132V24H113.121L132 5.12132ZM153.879 3L135 21.8786V3H153.879ZM108 5.12132L89.1212 24H108V5.12132ZM111 21.8786L129.879 3H111V21.8786ZM84 5.12132V24H65.1212L84 5.12132ZM105.879 3L87 21.8786V3H105.879ZM60 5.12132L41.1212 24H60V5.12132ZM63 21.8786L81.8787 3H63V21.8786ZM393 3H411.879L393 21.8786V3ZM534 5.12132L515.121 24H534V5.12132ZM537 21.8786L555.879 3H537V21.8786ZM510 5.12132V24H491.121L510 5.12132ZM531.879 3L513 21.8786V3H531.879ZM486 5.12132L467.121 24H486V5.12132ZM489 21.8786L507.879 3H489V21.8786ZM462 5.12132V24H443.121L462 5.12132ZM483.879 3L465 21.8786V3H483.879ZM438 5.12132L419.121 24H438V5.12132ZM441 21.8786L459.879 3H441V21.8786ZM414 5.12132V24H395.121L414 5.12132ZM435.879 3L417 21.8786V3H435.879ZM558 24H539.121L558 5.12132V24ZM728.879 3H710V21.8786L728.879 3ZM712.121 24H731V5.12132L712.121 24ZM855 3H873.879L855 21.8786V3ZM948 5.12132L929.121 24H948V5.12132ZM951 21.8786L969.879 3H951V21.8786ZM924 5.12132L905.121 24H924V5.12132ZM927 21.8786L945.879 3H927V21.8786ZM900 5.12132L881.121 24H900V5.12132ZM903 21.8786L921.879 3H903V21.8786ZM876 5.12132L857.121 24H876V5.12132ZM879 21.8786L897.879 3H879V21.8786ZM329.121 24H348V5.12132L329.121 24ZM972 24H953.121L972 5.12132V24Z" fill="#070410"/>
</svg>
