<svg width="257" height="110" viewBox="0 0 257 110" fill="none" xmlns="http://www.w3.org/2000/svg">
<path fill-rule="evenodd" clip-rule="evenodd" d="M21 47.456V12H44.36L42.312 19.552H31.688V25.888H41.288L39.24 33.44H31.688V39.776H44.488L42.44 47.456H21ZM44.5975 47.456L47.5415 30.816H53.7495V30.56C51.6162 28.896 49.9095 27.1893 48.6295 25.44C47.3495 23.6907 46.4322 21.728 45.8775 19.552C45.3228 17.376 45.0455 14.8587 45.0455 12H56.3735C56.3735 13.8773 56.4802 15.456 56.6935 16.736C56.9495 18.016 57.3762 19.168 57.9735 20.192C58.5708 21.216 59.4455 22.2827 60.5975 23.392L62.9015 12H73.7175L70.5815 27.296H65.7815V27.488C68.0002 29.0667 69.7708 30.7733 71.0935 32.608C72.4162 34.4427 73.3975 36.5547 74.0375 38.944C74.6775 41.3333 75.0188 44.1707 75.0615 47.456H63.6055C63.6055 44.128 63.1788 41.44 62.3255 39.392C61.4722 37.3013 60.0642 35.4667 58.1015 33.888L55.6695 47.456H44.5975ZM75.84 40.032C76.9493 43.0613 78.528 45.536 80.576 47.456H94.72V47.264C91.4773 44.4053 89.088 41.568 87.552 38.752C86.0587 35.8933 85.312 32.8213 85.312 29.536C85.312 26.336 86.1013 23.2853 87.68 20.384C89.3013 17.44 91.6267 14.7093 94.656 12.192V12H80.576C78.5707 14.0907 77.0133 16.6933 75.904 19.808C74.7947 22.9227 74.24 26.272 74.24 29.856C74.24 33.6107 74.7733 37.0027 75.84 40.032ZM95.115 47.456V12H106.059V39.456H117.624C117.206 37.3223 116.997 34.9329 116.997 32.288V12H128C128 12 126.018 31.0978 118.058 39.0581C113.655 43.461 105.845 46.0348 99.7437 47.456H95.115ZM156.256 47.456C154.144 46.9639 151.826 46.3336 149.516 45.537C151.501 42.9489 152.493 40.5592 152.493 38.368C152.493 37.6427 152.386 36.9173 152.173 36.192C152.002 35.4667 151.661 34.592 151.149 33.568C150.68 32.544 150.018 31.2213 149.165 29.6C147.8 26.9973 147.117 24.5227 147.117 22.176C147.117 20.5973 147.48 18.912 148.205 17.12C148.93 15.2853 149.997 13.5787 151.405 12H163.373V12.128C161.794 13.8773 160.664 15.456 159.981 16.864C159.298 18.2293 158.957 19.6373 158.957 21.088C158.957 22.1547 159.149 23.2 159.533 24.224C159.917 25.248 160.536 26.5707 161.389 28.192C162.541 30.2827 163.33 31.9893 163.757 33.312C164.226 34.592 164.461 35.9147 164.461 37.28C164.461 39.1147 164.162 40.8427 163.565 42.464C162.968 44.0427 161.986 45.7067 160.621 47.456H156.256ZM149.198 52.5737C150.954 51.9564 152.719 51.4359 154.401 51H160.334V58.936C160.334 60.5573 159.993 62.1147 159.31 63.608C158.627 65.0587 157.475 66.1893 155.854 67V67.128C157.731 67.8533 159.075 69.1547 159.886 71.032C160.697 72.8667 161.187 75.0427 161.358 77.56L161.934 86.456H150.67L150.094 77.56C149.966 75.5547 149.433 73.8267 148.494 72.376C147.555 70.8827 146.041 70.0507 143.95 69.88V86.456H133.07V66.4397C134.368 63.5638 135.972 60.9118 137.942 58.9419C139.566 57.3174 141.655 55.9419 143.95 54.7814V66.808C145.998 66.5093 147.385 65.6347 148.11 64.184C148.835 62.7333 149.198 61.048 149.198 59.128V52.5737ZM105.005 51.9752C103.712 54.5619 102.687 57.5009 101.93 60.792C101.077 64.504 100.65 68.3013 100.65 72.184C100.65 73.6347 100.715 75.2773 100.842 77.112C100.97 78.9467 101.141 80.696 101.354 82.36C101.568 84.024 101.781 85.3893 101.994 86.456H113.002C112.661 84.792 112.362 83.32 112.106 82.04C111.893 80.76 111.722 79.4587 111.594 78.136C111.466 76.8133 111.36 75.2987 111.274 73.592H120.234C120.149 75.2987 120.042 76.8133 119.914 78.136C119.786 79.4587 119.616 80.76 119.402 82.04C119.189 83.32 118.891 84.792 118.507 86.456H129.514C129.77 85.3893 129.984 84.024 130.154 82.36C130.368 80.696 130.538 78.9467 130.666 77.112C130.789 75.3552 130.853 73.7745 130.858 72.3698C128.683 79.4169 128 86 128 86C128 86 126.047 67.1793 118.231 59.1175C118.281 59.2691 118.33 59.4219 118.378 59.576C119.104 61.88 119.616 64.12 119.914 66.296H111.594C111.893 64.0773 112.405 61.8373 113.131 59.576C113.519 58.3419 113.95 57.1874 114.425 56.1125C111.612 54.358 108.271 53.0055 105.005 51.9752ZM145.349 43.8889C142.508 42.598 139.891 41.0073 137.942 39.0581C136.543 37.659 135.328 35.9158 134.277 33.9928V12H145.349V43.8889ZM128.069 12.5873C128.021 12.2072 128 12 128 12H128.069V12.5873ZM166.23 12V47.456H177.302V12H166.23ZM182.671 47.456L178.958 12H189.966L193.486 45.408C194.34 44.512 195.001 43.1893 195.471 41.44C195.982 39.6907 196.324 37.408 196.494 34.592L197.839 12H208.718L207.438 34.336C207.31 36.5973 207.097 38.5387 206.798 40.16C206.542 41.7387 206.137 43.104 205.583 44.256C205.071 45.3653 204.388 46.432 203.535 47.456H182.671ZM210.702 12V47.456H232.143L234.191 39.776H221.391V33.44H228.943L230.99 25.888H221.391V19.552H232.014L234.062 12H210.702ZM21 86.456V51H44.744C48.4133 56.4613 50.248 62.072 50.248 67.832C50.248 70.0933 50.0133 72.3973 49.544 74.744C49.0747 77.0907 48.4347 79.288 47.624 81.336C46.8133 83.384 45.8533 85.0907 44.744 86.456H21ZM32.072 84.408C34.4613 82.7867 36.2533 80.5253 37.448 77.624C38.6853 74.68 39.304 71.608 39.304 68.408C39.304 66.1893 39.0053 64.056 38.408 62.008C37.8107 59.96 36.9787 58.168 35.912 56.632C34.8453 55.096 33.5653 54.0293 32.072 53.432V84.408ZM52.205 51V86.456H73.645L75.693 78.776H62.893V72.44H70.445L72.493 64.888H62.893V58.552H73.517L75.565 51H52.205ZM74.533 86.456L85.989 58.68H74.597L76.709 51H101.029L89.573 78.776H100.837L98.725 86.456H74.533ZM164.229 80.632C164.997 83.2773 166.277 85.2187 168.069 86.456H191.429V51H180.357V84.408C178.224 83.2987 176.645 81.5067 175.621 79.032C174.64 76.5147 174.149 73.2933 174.149 69.368V51H163.077V71.288C163.077 74.872 163.461 77.9867 164.229 80.632ZM193.98 86.456V51H217.788C218.897 51.8107 219.793 52.9627 220.476 54.456C221.201 55.9067 221.564 57.4 221.564 58.936C221.564 60.6427 221.137 62.328 220.284 63.992C219.473 65.6133 218.257 66.808 216.636 67.576V67.704C218.428 68.472 219.772 69.7093 220.668 71.416C221.564 73.1227 222.097 75.1707 222.268 77.56L222.844 86.456H211.58L211.004 77.56C210.748 73.1227 208.7 70.7547 204.86 70.456V86.456H193.98ZM204.86 67.384C206.567 66.9147 207.932 66.0187 208.956 64.696C209.98 63.3733 210.492 61.8587 210.492 60.152C210.492 58.4027 209.959 56.9093 208.892 55.672C207.868 54.392 206.524 53.6453 204.86 53.432V67.384ZM224.56 51V86.456H235.632V51H224.56Z" fill="#FFE88B"/>
<path fill-rule="evenodd" clip-rule="evenodd" d="M30.488 86.456H44.744C45.8533 85.0907 46.8133 83.384 47.624 81.336C48.4347 79.288 49.0747 77.0907 49.544 74.744C50.0133 72.3973 50.248 70.0933 50.248 67.832C50.248 65.9747 50.0573 64.133 49.6758 62.3068C46.6115 64.1427 43.8313 66.2051 41.5182 68.5182C40.6973 69.3391 39.9079 70.2188 39.1491 71.1492C38.8949 73.3722 38.3279 75.5305 37.448 77.624C36.2533 80.5253 34.4613 82.7867 32.072 84.408V82.8213C31.5176 84.0144 30.99 85.2287 30.488 86.456ZM52.205 60.8749V86.456H73.645L75.693 78.776H62.893V72.44H70.445L72.493 64.888H62.893V58.552H73.517L75.1877 52.3912C67.7173 54.2982 59.3732 57.0358 52.205 60.8749ZM76.4108 52.0843L74.597 58.68H85.989L74.533 86.456H98.725L100.837 78.776H89.573L101.029 51H81.113C79.608 51.3238 78.0333 51.6843 76.4108 52.0843ZM88.7114 47.456H94.72V47.264C91.4773 44.4053 89.088 41.568 87.552 38.752C86.0587 35.8933 85.312 32.8213 85.312 29.536C85.312 26.336 86.1013 23.2853 87.68 20.384C89.3013 17.44 91.6267 14.7093 94.656 12.192V12H80.576C78.5707 14.0907 77.0133 16.6933 75.904 19.808C74.7947 22.9227 74.24 26.272 74.24 29.856C74.24 33.6107 74.7733 37.0027 75.84 40.032C76.6007 42.1093 77.5821 43.9257 78.7841 45.4814C82.5252 46.343 85.933 46.9882 88.7114 47.456ZM74.9368 44.5445C74.7799 42.4634 74.4801 40.5965 74.0375 38.944C73.3975 36.5547 72.4162 34.4427 71.0935 32.608C69.7708 30.7733 68.0002 29.0667 65.7815 27.488V27.296H70.5815L73.7175 12H62.9015L60.5975 23.392C59.4455 22.2827 58.5708 21.216 57.9735 20.192C57.3762 19.168 56.9495 18.016 56.6935 16.736C56.4802 15.456 56.3735 13.8773 56.3735 12H45.0455C45.0455 14.8587 45.3228 17.376 45.8775 19.552C46.4322 21.728 47.3495 23.6907 48.6295 25.44C49.9095 27.1893 51.6162 28.896 53.7495 30.56V30.816H47.5415L47.1416 33.0762C50.2088 35.1642 53.6548 36.989 57.2606 38.5796L58.1015 33.888C60.0642 35.4667 61.4722 37.3013 62.3255 39.392C62.5106 39.8363 62.6756 40.3106 62.8206 40.8151C66.897 42.3104 71.0325 43.5407 74.9368 44.5445ZM40.7889 27.7284L41.288 25.888H39.1795C39.7015 26.5263 40.2378 27.1407 40.7889 27.7284ZM34.8523 19.552H42.312L44.36 12H31.0984C32.2248 14.6205 33.4725 17.1654 34.8523 19.552ZM210.702 12H226.902C225.775 14.6205 224.528 17.1654 223.148 19.552H221.391V22.3908C219.896 24.6424 218.263 26.7006 216.482 28.4818C214.783 30.1805 212.833 31.744 210.702 33.1819V12ZM207.438 34.336C207.421 34.6453 207.402 34.9487 207.381 35.2461C203.747 37.3311 199.752 39.1122 195.687 40.6275C196.08 39.0027 196.349 36.9909 196.494 34.592L197.839 12H208.718L207.438 34.336ZM189.966 12L193.081 41.5603C189.455 42.807 185.822 43.8505 182.384 44.7175L178.958 12H189.966ZM177.302 12V45.9102C174.312 46.5614 171.585 47.0693 169.289 47.456H166.23V12H177.302ZM180.357 84.408V51.7858C183.867 52.6212 187.635 53.6443 191.429 54.8856V86.456H168.069C166.277 85.2187 164.997 83.2773 164.229 80.632C163.461 77.9867 163.077 74.872 163.077 71.288V51H174.149V69.368C174.149 73.2933 174.64 76.5147 175.621 79.032C176.645 81.5067 178.224 83.2987 180.357 84.408ZM193.98 86.456V55.7531C197.706 57.0697 201.406 58.6035 204.86 60.3837V67.384C206.567 66.9147 207.932 66.0187 208.956 64.696C209.312 64.2364 209.606 63.7536 209.838 63.2477C212.306 64.84 214.556 66.5922 216.482 68.5182C218.522 70.5586 220.368 72.9624 222.034 75.604C222.142 76.2284 222.219 76.8804 222.268 77.56L222.844 86.456H211.58L211.004 77.56C210.748 73.1227 208.7 70.7547 204.86 70.456V86.456H193.98ZM224.56 86.456V80.031C225.631 82.0993 226.613 84.2568 227.512 86.456H224.56ZM95.115 47.456V12H106.059V39.456H117.624C117.206 37.3223 116.997 34.9329 116.997 32.288V12H128C128 12 126.018 31.0978 118.058 39.0581C113.655 43.461 105.845 46.0348 99.7437 47.456H95.115ZM128 12H128.069V12.5873C128.021 12.2072 128 12 128 12ZM156.256 47.456C154.144 46.9639 151.826 46.3336 149.516 45.537C151.501 42.9489 152.493 40.5592 152.493 38.368C152.493 37.6427 152.386 36.9173 152.173 36.192C152.002 35.4667 151.661 34.592 151.149 33.568C150.68 32.544 150.018 31.2213 149.165 29.6C147.8 26.9973 147.117 24.5227 147.117 22.176C147.117 20.5973 147.48 18.912 148.205 17.12C148.93 15.2853 149.997 13.5787 151.405 12H163.373V12.128C161.794 13.8773 160.664 15.456 159.981 16.864C159.298 18.2293 158.957 19.6373 158.957 21.088C158.957 22.1547 159.149 23.2 159.533 24.224C159.917 25.248 160.536 26.5707 161.389 28.192C162.541 30.2827 163.33 31.9893 163.757 33.312C164.226 34.592 164.461 35.9147 164.461 37.28C164.461 39.1147 164.162 40.8427 163.565 42.464C162.968 44.0427 161.986 45.7067 160.621 47.456H156.256ZM149.198 52.5737C150.954 51.9564 152.719 51.4359 154.401 51H160.334V58.936C160.334 60.5573 159.993 62.1147 159.31 63.608C158.627 65.0587 157.475 66.1893 155.854 67V67.128C157.731 67.8533 159.075 69.1547 159.886 71.032C160.697 72.8667 161.187 75.0427 161.358 77.56L161.934 86.456H150.67L150.094 77.56C149.966 75.5547 149.433 73.8267 148.494 72.376C147.555 70.8827 146.041 70.0507 143.95 69.88V86.456H133.07V66.4397C134.368 63.5638 135.972 60.9118 137.942 58.9419C139.566 57.3174 141.655 55.9419 143.95 54.7814V66.808C145.998 66.5093 147.385 65.6347 148.11 64.184C148.835 62.7333 149.198 61.048 149.198 59.128V52.5737ZM105.005 51.9752C103.712 54.5619 102.687 57.5009 101.93 60.792C101.077 64.504 100.65 68.3013 100.65 72.184C100.65 73.6347 100.715 75.2773 100.842 77.112C100.97 78.9467 101.141 80.696 101.354 82.36C101.568 84.024 101.781 85.3893 101.994 86.456H113.002C112.661 84.792 112.362 83.32 112.106 82.04C111.893 80.76 111.722 79.4587 111.594 78.136C111.466 76.8133 111.36 75.2987 111.274 73.592H120.234C120.149 75.2987 120.042 76.8133 119.914 78.136C119.786 79.4587 119.616 80.76 119.402 82.04C119.189 83.32 118.891 84.792 118.507 86.456H129.514C129.77 85.3893 129.984 84.024 130.154 82.36C130.368 80.696 130.538 78.9467 130.666 77.112C130.789 75.3552 130.853 73.7745 130.858 72.3698C128.683 79.4169 128 86 128 86C128 86 126.047 67.1793 118.231 59.1175C118.281 59.2691 118.33 59.4219 118.378 59.576C119.104 61.88 119.616 64.12 119.914 66.296H111.594C111.893 64.0773 112.405 61.8373 113.131 59.576C113.519 58.3419 113.95 57.1874 114.425 56.1125C111.612 54.358 108.271 53.0055 105.005 51.9752ZM145.349 43.8889C142.508 42.598 139.891 41.0073 137.942 39.0581C136.543 37.659 135.328 35.9158 134.277 33.9928V12H145.349V43.8889Z" fill="#FFD014"/>
<g filter="url(#filter0_d_484_712)">
<path d="M128 35C128 35 128.75 42.2262 131.762 45.2382C134.774 48.2502 142 49 142 49C142 49 134.774 49.7498 131.762 52.7618C128.75 55.7738 128 63 128 63C128 63 127.25 55.7738 124.238 52.7618C121.226 49.7498 114 49 114 49C114 49 121.226 48.2502 124.238 45.2382C127.25 42.2262 128 35 128 35Z" fill="#FFD014"/>
<path d="M128 35C128 35 128.75 42.2262 131.762 45.2382C134.774 48.2502 142 49 142 49C142 49 134.774 49.7498 131.762 52.7618C128.75 55.7738 128 63 128 63C128 63 127.25 55.7738 124.238 52.7618C121.226 49.7498 114 49 114 49C114 49 121.226 48.2502 124.238 45.2382C127.25 42.2262 128 35 128 35Z" fill="white"/>
</g>
<g filter="url(#filter1_d_484_712)">
<path d="M14 82C14 82 14.5356 87.1616 16.687 89.313C18.8384 91.4644 24 92 24 92C24 92 18.8384 92.5356 16.687 94.687C14.5356 96.8384 14 102 14 102C14 102 13.4644 96.8384 11.313 94.687C9.16157 92.5356 4 92 4 92C4 92 9.16157 91.4644 11.313 89.313C13.4644 87.1616 14 82 14 82Z" fill="white"/>
</g>
<g filter="url(#filter2_d_484_712)">
<path d="M244 38C244 38 244.482 42.6454 246.418 44.5817C248.355 46.518 253 47 253 47C253 47 248.355 47.482 246.418 49.4183C244.482 51.3546 244 56 244 56C244 56 243.518 51.3546 241.582 49.4183C239.645 47.482 235 47 235 47C235 47 239.645 46.518 241.582 44.5817C243.518 42.6454 244 38 244 38Z" fill="white"/>
</g>
<g filter="url(#filter3_d_484_712)">
<path d="M208 87C208 87 208.268 89.5808 209.344 90.6565C210.419 91.7322 213 92 213 92C213 92 210.419 92.2678 209.344 93.3435C208.268 94.4192 208 97 208 97C208 97 207.732 94.4192 206.656 93.3435C205.581 92.2678 203 92 203 92C203 92 205.581 91.7322 206.656 90.6565C207.732 89.5808 208 87 208 87Z" fill="white"/>
</g>
<g filter="url(#filter4_d_484_712)">
<path d="M60 0C60 0 60.2678 2.58078 61.3435 3.6565C62.4192 4.73221 65 5 65 5C65 5 62.4192 5.26779 61.3435 6.3435C60.2678 7.41922 60 10 60 10C60 10 59.7322 7.41922 58.6565 6.3435C57.5808 5.26779 55 5 55 5C55 5 57.5808 4.73221 58.6565 3.6565C59.7322 2.58078 60 0 60 0Z" fill="white"/>
</g>
<defs>
<filter id="filter0_d_484_712" x="110" y="35" width="36" height="36" filterUnits="userSpaceOnUse" color-interpolation-filters="sRGB">
<feFlood flood-opacity="0" result="BackgroundImageFix"/>
<feColorMatrix in="SourceAlpha" type="matrix" values="0 0 0 0 0 0 0 0 0 0 0 0 0 0 0 0 0 0 127 0" result="hardAlpha"/>
<feOffset dy="4"/>
<feGaussianBlur stdDeviation="2"/>
<feComposite in2="hardAlpha" operator="out"/>
<feColorMatrix type="matrix" values="0 0 0 0 0 0 0 0 0 0 0 0 0 0 0 0 0 0 0.25 0"/>
<feBlend mode="normal" in2="BackgroundImageFix" result="effect1_dropShadow_484_712"/>
<feBlend mode="normal" in="SourceGraphic" in2="effect1_dropShadow_484_712" result="shape"/>
</filter>
<filter id="filter1_d_484_712" x="0" y="82" width="28" height="28" filterUnits="userSpaceOnUse" color-interpolation-filters="sRGB">
<feFlood flood-opacity="0" result="BackgroundImageFix"/>
<feColorMatrix in="SourceAlpha" type="matrix" values="0 0 0 0 0 0 0 0 0 0 0 0 0 0 0 0 0 0 127 0" result="hardAlpha"/>
<feOffset dy="4"/>
<feGaussianBlur stdDeviation="2"/>
<feComposite in2="hardAlpha" operator="out"/>
<feColorMatrix type="matrix" values="0 0 0 0 0 0 0 0 0 0 0 0 0 0 0 0 0 0 0.25 0"/>
<feBlend mode="normal" in2="BackgroundImageFix" result="effect1_dropShadow_484_712"/>
<feBlend mode="normal" in="SourceGraphic" in2="effect1_dropShadow_484_712" result="shape"/>
</filter>
<filter id="filter2_d_484_712" x="231" y="38" width="26" height="26" filterUnits="userSpaceOnUse" color-interpolation-filters="sRGB">
<feFlood flood-opacity="0" result="BackgroundImageFix"/>
<feColorMatrix in="SourceAlpha" type="matrix" values="0 0 0 0 0 0 0 0 0 0 0 0 0 0 0 0 0 0 127 0" result="hardAlpha"/>
<feOffset dy="4"/>
<feGaussianBlur stdDeviation="2"/>
<feComposite in2="hardAlpha" operator="out"/>
<feColorMatrix type="matrix" values="0 0 0 0 0 0 0 0 0 0 0 0 0 0 0 0 0 0 0.25 0"/>
<feBlend mode="normal" in2="BackgroundImageFix" result="effect1_dropShadow_484_712"/>
<feBlend mode="normal" in="SourceGraphic" in2="effect1_dropShadow_484_712" result="shape"/>
</filter>
<filter id="filter3_d_484_712" x="199" y="87" width="18" height="18" filterUnits="userSpaceOnUse" color-interpolation-filters="sRGB">
<feFlood flood-opacity="0" result="BackgroundImageFix"/>
<feColorMatrix in="SourceAlpha" type="matrix" values="0 0 0 0 0 0 0 0 0 0 0 0 0 0 0 0 0 0 127 0" result="hardAlpha"/>
<feOffset dy="4"/>
<feGaussianBlur stdDeviation="2"/>
<feComposite in2="hardAlpha" operator="out"/>
<feColorMatrix type="matrix" values="0 0 0 0 0 0 0 0 0 0 0 0 0 0 0 0 0 0 0.25 0"/>
<feBlend mode="normal" in2="BackgroundImageFix" result="effect1_dropShadow_484_712"/>
<feBlend mode="normal" in="SourceGraphic" in2="effect1_dropShadow_484_712" result="shape"/>
</filter>
<filter id="filter4_d_484_712" x="51" y="0" width="18" height="18" filterUnits="userSpaceOnUse" color-interpolation-filters="sRGB">
<feFlood flood-opacity="0" result="BackgroundImageFix"/>
<feColorMatrix in="SourceAlpha" type="matrix" values="0 0 0 0 0 0 0 0 0 0 0 0 0 0 0 0 0 0 127 0" result="hardAlpha"/>
<feOffset dy="4"/>
<feGaussianBlur stdDeviation="2"/>
<feComposite in2="hardAlpha" operator="out"/>
<feColorMatrix type="matrix" values="0 0 0 0 0 0 0 0 0 0 0 0 0 0 0 0 0 0 0.25 0"/>
<feBlend mode="normal" in2="BackgroundImageFix" result="effect1_dropShadow_484_712"/>
<feBlend mode="normal" in="SourceGraphic" in2="effect1_dropShadow_484_712" result="shape"/>
</filter>
</defs>
</svg>
