<svg width="100" height="100" viewBox="0 0 100 100" fill="none" xmlns="http://www.w3.org/2000/svg">
<rect width="100" height="100" rx="32" fill="#0B1544"/>
<g clip-path="url(#clip0_352_68)">
<path d="M50 78C57.4261 78 64.548 75.05 69.799 69.799C75.05 64.548 78 57.4261 78 50C78 42.5739 75.05 35.452 69.799 30.201C64.548 24.95 57.4261 22 50 22L50 34.9948C53.9796 34.9948 57.7963 36.5757 60.6103 39.3897C63.4243 42.2037 65.0052 46.0204 65.0052 50C65.0052 53.9796 63.4243 57.7963 60.6103 60.6103C57.7963 63.4243 53.9796 65.0052 50 65.0052L50 78Z" fill="#ECB424"/>
<path d="M22 22L50 22L50 35H33C26.9249 35 22 30.0751 22 24V22Z" fill="#ECB424"/>
<path d="M38 65H50L50 78H49C42.9249 78 38 73.0751 38 67V65Z" fill="#ECB424"/>
<path d="M22 57C22 61.4183 25.5817 65 30 65H38V60C38 55.5817 34.4183 52 30 52H22V57Z" fill="#ECB424"/>
</g>
<defs>
<clipPath id="clip0_352_68">
<rect width="56" height="56" fill="white" transform="translate(22 22)"/>
</clipPath>
</defs>
</svg>
