<svg width="32" height="32" viewBox="0 0 32 32" fill="none" xmlns="http://www.w3.org/2000/svg">
<g clip-path="url(#clip0_150_30)">
<path opacity="0.5" d="M27 16C27 22.0751 22.0751 27 16 27C9.92487 27 5 22.0751 5 16C5 9.92487 9.92487 5 16 5C22.0751 5 27 9.92487 27 16ZM6.07065 16C6.07065 21.4838 10.5162 25.9294 16 25.9294C21.4838 25.9294 25.9294 21.4838 25.9294 16C25.9294 10.5162 21.4838 6.07065 16 6.07065C10.5162 6.07065 6.07065 10.5162 6.07065 16Z" fill="#FFF27E"/>
<path d="M16.8672 27.4639C16.2194 29.9475 16 32 16 32C16 32 15.7796 29.9476 15.1318 27.4639C15.4185 27.4853 15.7078 27.5 16 27.5C16.2918 27.5 16.5808 27.4852 16.8672 27.4639ZM16 6.68555C16.5329 6.68555 17.055 6.73241 17.5635 6.81836C17.7528 7.35271 17.9618 7.88536 18.1943 8.40137C17.3866 8.8059 16.6401 9.33846 15.9893 9.98926C14.3952 11.5833 13.5 13.7457 13.5 16C13.5 18.2543 14.3952 20.4167 15.9893 22.0107C16.6399 22.6614 17.3867 23.1931 18.1943 23.5977C17.9617 24.1136 17.7528 24.6463 17.5635 25.1807C17.055 25.2666 16.533 25.3145 16 25.3145C15.4667 25.3145 14.9443 25.2667 14.4355 25.1807C13.7852 23.3453 12.8917 21.5343 11.6787 20.3213C10.4655 19.1081 8.65416 18.2139 6.81836 17.5635C6.73241 17.055 6.68555 16.5329 6.68555 16C6.68555 15.4668 6.7323 14.9443 6.81836 14.4355C8.65406 13.7852 10.4656 12.8919 11.6787 11.6787C12.8919 10.4656 13.7852 8.65406 14.4355 6.81836C14.9443 6.7323 15.4668 6.68555 16 6.68555ZM20.3213 11.6787C21.5343 12.8917 23.3453 13.7852 25.1807 14.4355C25.2667 14.9443 25.3145 15.4667 25.3145 16C25.3145 16.533 25.2666 17.055 25.1807 17.5635C23.3452 18.2138 21.5343 19.1083 20.3213 20.3213C20.2969 20.3457 20.2741 20.3716 20.25 20.3965C19.6576 20.1607 19.1129 19.8063 18.6533 19.3467C17.7656 18.459 17.2666 17.2554 17.2666 16C17.2666 14.7446 17.7656 13.541 18.6533 12.6533C19.113 12.1936 19.6574 11.8384 20.25 11.6025C20.2743 11.6276 20.2968 11.6542 20.3213 11.6787ZM4.53516 15.1318C4.51375 15.4185 4.5 15.7079 4.5 16C4.5 16.2918 4.5138 16.5808 4.53516 16.8672C2.05275 16.2198 0.00133662 16.0001 0 16C0.001412 15.9998 2.05269 15.7792 4.53516 15.1318ZM27.4639 15.1318C29.9476 15.7796 32 16 32 16C32 16 29.9475 16.2194 27.4639 16.8672C27.4852 16.5808 27.5 16.2918 27.5 16C27.5 15.7078 27.4853 15.4185 27.4639 15.1318ZM16 0C16.0001 0.000682583 16.2197 2.05235 16.8672 4.53516C16.5808 4.5138 16.2918 4.5 16 4.5C15.7079 4.5 15.4185 4.51375 15.1318 4.53516C15.7795 2.05183 16 0 16 0Z" fill="#FFF27E"/>
</g>
<defs>
<clipPath id="clip0_150_30">
<rect width="32" height="32" fill="white"/>
</clipPath>
</defs>
</svg>
