<svg width="64" height="64" viewBox="0 0 64 64" fill="none" xmlns="http://www.w3.org/2000/svg">
<g clip-path="url(#clip0_148_2)">
<path opacity="0.5" d="M54 32C54 44.1503 44.1503 54 32 54C19.8497 54 10 44.1503 10 32C10 19.8497 19.8497 10 32 10C44.1503 10 54 19.8497 54 32ZM12.1413 32C12.1413 42.9677 21.0323 51.8587 32 51.8587C42.9677 51.8587 51.8587 42.9677 51.8587 32C51.8587 21.0323 42.9677 12.1413 32 12.1413C21.0323 12.1413 12.1413 21.0323 12.1413 32Z" fill="#FFF27E"/>
<path d="M33.7334 54.9346C32.4392 59.8988 32 64 32 64C32 64 31.5598 59.899 30.2656 54.9346C30.8382 54.9773 31.4165 55 32 55C32.5831 55 33.1612 54.9772 33.7334 54.9346ZM32 13.3721C33.0653 13.3721 34.1095 13.462 35.126 13.6338C35.5044 14.7021 35.9218 15.7671 36.3867 16.7988C34.7712 17.6079 33.2811 18.6779 31.9795 19.9795C28.7914 23.1676 27 27.4913 27 32C27 36.5087 28.7914 40.8324 31.9795 44.0205C33.281 45.322 34.7714 46.3912 36.3867 47.2002C35.9218 48.2319 35.5044 49.2969 35.126 50.3652C34.1095 50.537 33.0654 50.6279 32 50.6279C30.9343 50.6279 29.8898 50.5371 28.873 50.3652C27.5722 46.693 25.7843 43.0694 23.3574 40.6426C20.9303 38.2155 17.3064 36.4268 13.6338 35.126C13.462 34.1095 13.3721 33.0653 13.3721 32C13.3721 30.9344 13.4619 29.8898 13.6338 28.873C17.3063 27.5722 20.9304 25.7845 23.3574 23.3574C25.7845 20.9304 27.5722 17.3063 28.873 13.6338C29.8898 13.4619 30.9344 13.3721 32 13.3721ZM40.6426 23.3574C43.0694 25.7843 46.693 27.5722 50.3652 28.873C50.5371 29.8898 50.6279 30.9343 50.6279 32C50.6279 33.0654 50.537 34.1095 50.3652 35.126C46.6929 36.4268 43.0695 38.2157 40.6426 40.6426C40.5935 40.6916 40.5456 40.742 40.4971 40.792C39.3133 40.3203 38.2242 39.6128 37.3057 38.6943C35.5303 36.919 34.5332 34.5107 34.5332 32C34.5332 29.4892 35.5303 27.081 37.3057 25.3057C38.2243 24.3871 39.3132 23.6787 40.4971 23.207C40.5458 23.2572 40.5934 23.3082 40.6426 23.3574ZM9.06445 30.2656C9.02177 30.8382 9 31.4165 9 32C9 32.5831 9.02182 33.1612 9.06445 33.7334C4.10221 32.4398 0.0026722 32.0003 0 32C0.00282286 31.9997 4.10219 31.5592 9.06445 30.2656ZM54.9346 30.2656C59.899 31.5598 64 32 64 32C64 32 59.8988 32.4392 54.9346 33.7334C54.9772 33.1612 55 32.5831 55 32C55 31.4165 54.9773 30.8382 54.9346 30.2656ZM32 0C32.0001 0.00136464 32.4396 4.10142 33.7334 9.06445C33.1612 9.02182 32.5831 9 32 9C31.4165 9 30.8382 9.02177 30.2656 9.06445C31.5597 4.10048 32 0 32 0Z" fill="#FFF27E"/>
</g>
<defs>
<clipPath id="clip0_148_2">
<rect width="64" height="64" fill="white"/>
</clipPath>
</defs>
</svg>
