<svg width="128" height="128" viewBox="0 0 128 128" fill="none" xmlns="http://www.w3.org/2000/svg">
<g clip-path="url(#clip0_150_9)">
<path opacity="0.5" d="M108 64C108 88.3005 88.3005 108 64 108C39.6995 108 20 88.3005 20 64C20 39.6995 39.6995 20 64 20C88.3005 20 108 39.6995 108 64ZM24.2826 64C24.2826 85.9353 42.0647 103.717 64 103.717C85.9353 103.717 103.717 85.9353 103.717 64C103.717 42.0647 85.9353 24.2826 64 24.2826C42.0647 24.2826 24.2826 42.0647 24.2826 64Z" fill="#FFF27E"/>
<path d="M67.4668 109.87C64.8787 119.798 64 128 64 128C64 128 63.1204 119.798 60.5322 109.87C61.677 109.955 62.8334 110 64 110C65.1663 110 66.3223 109.955 67.4668 109.87ZM64 26.7432C66.1299 26.7432 68.2177 26.9243 70.25 27.2676C71.0071 29.4051 71.8462 31.5344 72.7764 33.5986C69.5446 35.2169 66.5617 37.3543 63.958 39.958C57.5818 46.3342 54 54.9826 54 64C54 73.0174 57.5818 81.6658 63.958 88.042C66.5616 90.6456 69.5447 92.7822 72.7764 94.4004C71.8462 96.4646 71.0071 98.594 70.25 100.731C68.2177 101.075 66.13 101.257 64 101.257C61.8697 101.257 59.7816 101.075 57.749 100.731C55.1473 93.3864 51.5679 86.1402 46.7139 81.2861C41.8595 76.4318 34.613 72.8518 27.2676 70.25C26.9243 68.2177 26.7432 66.1299 26.7432 64C26.7432 61.8697 26.9242 59.7816 27.2676 57.749C34.6129 55.1473 41.8596 51.5681 46.7139 46.7139C51.5681 41.8596 55.1473 34.6129 57.749 27.2676C59.7816 26.9242 61.8697 26.7432 64 26.7432ZM81.2861 46.7139C86.1402 51.5679 93.3864 55.1473 100.731 57.749C101.075 59.7816 101.257 61.8697 101.257 64C101.257 66.13 101.075 68.2177 100.731 70.25C93.3863 72.8517 86.1403 76.432 81.2861 81.2861C81.1872 81.385 81.091 81.487 80.9932 81.5879C78.6254 80.6446 76.4495 79.2248 74.6123 77.3877C71.0616 73.837 69.0664 69.0215 69.0664 64C69.0664 58.9785 71.0616 54.163 74.6123 50.6123C76.4495 48.7751 78.6253 47.3544 80.9932 46.4111C81.0912 46.5122 81.1871 46.6148 81.2861 46.7139ZM18.1289 60.5322C18.0436 61.677 18 62.8334 18 64C18 65.1662 18.0436 66.3223 18.1289 67.4668C8.20441 64.8797 0.00534441 64.0006 0 64C0.00564568 63.9994 8.20449 63.1193 18.1289 60.5322ZM109.87 60.5322C119.798 63.1204 128 64 128 64C128 64 119.798 64.8787 109.87 67.4668C109.955 66.3223 110 65.1663 110 64C110 62.8334 109.955 61.677 109.87 60.5322ZM64 0C64.0003 0.00272928 64.8793 8.20283 67.4668 18.1289C66.3223 18.0436 65.1663 18 64 18C62.8334 18 61.677 18.0436 60.5322 18.1289C63.1202 8.20107 64 0 64 0Z" fill="#FFF27E"/>
</g>
<defs>
<clipPath id="clip0_150_9">
<rect width="128" height="128" fill="white"/>
</clipPath>
</defs>
</svg>
