<svg width="16" height="16" viewBox="0 0 16 16" fill="none" xmlns="http://www.w3.org/2000/svg">
<g clip-path="url(#clip0_150_16)">
<path opacity="0.5" d="M13.5 8C13.5 11.0376 11.0376 13.5 8 13.5C4.96243 13.5 2.5 11.0376 2.5 8C2.5 4.96243 4.96243 2.5 8 2.5C11.0376 2.5 13.5 4.96243 13.5 8ZM3.03532 8C3.03532 10.7419 5.25808 12.9647 8 12.9647C10.7419 12.9647 12.9647 10.7419 12.9647 8C12.9647 5.25808 10.7419 3.03532 8 3.03532C5.25808 3.03532 3.03532 5.25808 3.03532 8Z" fill="#FFF27E"/>
<path d="M8.43359 13.7314C8.10963 14.9735 8 16 8 16C8 16 7.88945 14.9736 7.56543 13.7314C7.70894 13.7422 7.85374 13.75 8 13.75C8.14593 13.75 8.2904 13.7421 8.43359 13.7314ZM8 3.34277C8.26728 3.34277 8.52921 3.36594 8.78418 3.40918C8.87869 3.67589 8.98061 3.94262 9.09668 4.2002C8.69288 4.40245 8.32046 4.66977 7.99512 4.99512C7.19809 5.79215 6.75 6.87283 6.75 8C6.75 9.12717 7.19809 10.2079 7.99512 11.0049C8.32036 11.3301 8.69303 11.5966 9.09668 11.7988C8.98059 12.0564 8.87871 12.3231 8.78418 12.5898C8.52916 12.6331 8.26733 12.6572 8 12.6572C7.73233 12.6572 7.47016 12.6332 7.21484 12.5898C6.88971 11.6726 6.44505 10.7673 5.83887 10.1611C5.23242 9.55469 4.32682 9.10935 3.40918 8.78418C3.36594 8.52921 3.34277 8.26728 3.34277 8C3.34277 7.73239 3.36584 7.47011 3.40918 7.21484C4.32671 6.88968 5.23249 6.44524 5.83887 5.83887C6.44524 5.23249 6.88968 4.32671 7.21484 3.40918C7.47011 3.36584 7.73239 3.34277 8 3.34277ZM10.1611 5.83887C10.7673 6.44505 11.6726 6.88971 12.5898 7.21484C12.6332 7.47016 12.6572 7.73233 12.6572 8C12.6572 8.26733 12.6331 8.52916 12.5898 8.78418C11.6725 9.10933 10.7674 9.55488 10.1611 10.1611C10.1493 10.173 10.1377 10.1852 10.126 10.1973C9.82956 10.0794 9.55612 9.90377 9.32617 9.67383C8.88233 9.22999 8.63379 8.62769 8.63379 8C8.63379 7.37231 8.88233 6.77001 9.32617 6.32617C9.5562 6.09614 9.82943 5.91967 10.126 5.80176C10.1379 5.81401 10.1491 5.82684 10.1611 5.83887ZM2.26758 7.56543C2.25685 7.70892 2.25 7.85377 2.25 8C2.25 8.1459 2.2569 8.29042 2.26758 8.43359C1.02637 8.10992 0.000668308 8.00007 0 8C0.000706021 7.99992 1.02629 7.88915 2.26758 7.56543ZM13.7314 7.56543C14.9736 7.88945 16 8 16 8C16 8 14.9735 8.10963 13.7314 8.43359C13.7421 8.2904 13.75 8.14593 13.75 8C13.75 7.85374 13.7422 7.70894 13.7314 7.56543ZM8 0C8.00004 0.000341292 8.10986 1.02618 8.43359 2.26758C8.29042 2.2569 8.1459 2.25 8 2.25C7.85377 2.25 7.70892 2.25685 7.56543 2.26758C7.88926 1.02586 8 0 8 0Z" fill="#FFF27E"/>
</g>
<defs>
<clipPath id="clip0_150_16">
<rect width="16" height="16" fill="white"/>
</clipPath>
</defs>
</svg>
