<svg width="128" height="128" viewBox="0 0 128 128" fill="none" xmlns="http://www.w3.org/2000/svg">
<g clip-path="url(#clip0_343_66)">
<path d="M64 128C80.9738 128 97.2525 121.257 109.255 109.255C121.257 97.2525 128 80.9739 128 64C128 47.0262 121.257 30.7475 109.255 18.7452C97.2525 6.74284 80.9739 3.30493e-06 64 0L64 29.7024C73.0963 29.7024 81.82 33.3159 88.2521 39.7479C94.6841 46.18 98.2976 54.9037 98.2976 64C98.2976 73.0963 94.6841 81.82 88.2521 88.2521C81.82 94.6841 73.0963 98.2976 64 98.2976L64 128Z" fill="#040405"/>
<path d="M0 0L64 0L64 29.7143H25.1429C11.2568 29.7143 0 18.4574 0 4.57143V0Z" fill="#040405"/>
<path d="M36.5714 98.2857H64L64 128H61.7143C47.8283 128 36.5714 116.743 36.5714 102.857V98.2857Z" fill="#040405"/>
<path d="M0 80C0 90.0989 8.18679 98.2857 18.2857 98.2857H36.5714V86.8571C36.5714 76.7582 28.3846 68.5714 18.2857 68.5714H0V80Z" fill="#040405"/>
</g>
<defs>
<clipPath id="clip0_343_66">
<rect width="128" height="128" fill="#040405"/>
</clipPath>
</defs>
</svg>
