<svg width="1920" height="539" viewBox="0 0 1920 539" fill="none" xmlns="http://www.w3.org/2000/svg">
<g clip-path="url(#clip0_403_2)">
<rect y="509" width="1920" height="30" fill="#040405"/>
<rect x="46" y="389" width="180" height="122" stroke="#040405" stroke-width="4"/>
<rect x="1608" y="361" width="273" height="150" stroke="#040405" stroke-width="4"/>
<rect x="1633" y="457" width="59" height="54" stroke="#040405" stroke-width="4"/>
<rect x="1777" y="337" width="96" height="9" stroke="#040405" stroke-width="4"/>
<rect x="1737" y="337" width="30" height="9" fill="#040405" stroke="#040405" stroke-width="4"/>
<rect x="1754" y="425" width="110" height="86" stroke="#040405" stroke-width="4"/>
<rect x="1599" y="348.377" width="291.567" height="12.2905" rx="5" transform="rotate(-0.074512 1599 348.377)" stroke="#040405" stroke-width="4"/>
<rect x="1749" y="417.75" width="120.574" height="7.25304" rx="3.62652" transform="rotate(-0.074512 1749 417.75)" fill="#040405" stroke="#040405" stroke-width="4"/>
<rect x="171" y="459" width="36" height="52" stroke="#040405" stroke-width="4"/>
<rect x="52" y="355" width="36" height="9" stroke="#040405" stroke-width="4"/>
<rect x="102" y="355" width="15" height="9" fill="#040405" stroke="#040405" stroke-width="4"/>
<rect x="36" y="364" width="198" height="24" rx="9" stroke="#040405" stroke-width="4"/>
<path d="M48 389H46V391V407C46 412.523 50.4772 417 56 417C61.5228 417 66 412.523 66 407V391V389H64H48Z" stroke="#040405" stroke-width="4"/>
<path d="M68 389H66V391V407C66 412.523 70.4772 417 76 417C81.5228 417 86 412.523 86 407V391V389H84H68Z" stroke="#040405" stroke-width="4"/>
<path d="M88 389H86V391V407C86 412.523 90.4772 417 96 417C101.523 417 106 412.523 106 407V391V389H104H88Z" stroke="#040405" stroke-width="4"/>
<path d="M108 389H106V391V407C106 412.523 110.477 417 116 417C121.523 417 126 412.523 126 407V391V389H124H108Z" stroke="#040405" stroke-width="4"/>
<path d="M128 389H126V391V407C126 412.523 130.477 417 136 417C141.523 417 146 412.523 146 407V391V389H144H128Z" stroke="#040405" stroke-width="4"/>
<path d="M148 389H146V391V407C146 412.523 150.477 417 156 417C161.523 417 166 412.523 166 407V391V389H164H148Z" stroke="#040405" stroke-width="4"/>
<path d="M168 389H166V391V407C166 412.523 170.477 417 176 417C181.523 417 186 412.523 186 407V391V389H184H168Z" stroke="#040405" stroke-width="4"/>
<path d="M188 389H186V391V407C186 412.523 190.477 417 196 417C201.523 417 206 412.523 206 407V391V389H204H188Z" stroke="#040405" stroke-width="4"/>
<path d="M208 389H206V391V407C206 412.523 210.477 417 216 417C221.523 417 226 412.523 226 407V391V389H224H208Z" stroke="#040405" stroke-width="4"/>
<rect x="64" y="426" width="88" height="63" rx="11" stroke="#040405" stroke-width="4"/>
<rect x="101.456" y="452" width="2.28989" height="36" rx="1.14495" transform="rotate(45 101.456 452)" fill="#040405"/>
<rect x="1672.46" y="471" width="2.28989" height="36" rx="1.14495" transform="rotate(45 1672.46 471)" fill="#040405"/>
<rect x="1864" y="454" width="5" height="56" rx="2.5" transform="rotate(90 1864 454)" fill="#040405"/>
<rect x="1864" y="438" width="5" height="78" rx="2.5" transform="rotate(90 1864 438)" fill="#040405"/>
<rect x="1647" y="375" width="5" height="21" rx="2.5" transform="rotate(90 1647 375)" fill="#040405"/>
<rect x="1679" y="150" width="4" height="57" rx="2" transform="rotate(90 1679 150)" fill="#040405"/>
<rect width="4" height="47" rx="2" transform="matrix(4.37114e-08 1 1 -4.37114e-08 1666 167)" fill="#040405"/>
<rect x="90" y="220" width="4" height="57" rx="2" transform="rotate(90 90 220)" fill="#040405"/>
<rect x="357" y="279" width="4" height="57" rx="2" transform="rotate(90 357 279)" fill="#040405"/>
<rect x="1874" y="224" width="4" height="57" rx="2" transform="rotate(90 1874 224)" fill="#040405"/>
<rect x="1932" y="267" width="4" height="57" rx="2" transform="rotate(90 1932 267)" fill="#040405"/>
<rect x="1724" y="150" width="4" height="30" rx="2" transform="rotate(90 1724 150)" fill="#040405"/>
<rect width="4" height="20" rx="2" transform="matrix(4.37114e-08 1 1 -4.37114e-08 1641 167)" fill="#040405"/>
<rect x="135" y="220" width="4" height="30" rx="2" transform="rotate(90 135 220)" fill="#040405"/>
<rect x="402" y="279" width="4" height="30" rx="2" transform="rotate(90 402 279)" fill="#040405"/>
<rect x="1919" y="224" width="4" height="30" rx="2" transform="rotate(90 1919 224)" fill="#040405"/>
<rect x="1762" y="366" width="5" height="21" rx="2.5" transform="rotate(90 1762 366)" fill="#040405"/>
<rect x="1882" y="398" width="5" height="21" rx="2.5" transform="rotate(90 1882 398)" fill="#040405"/>
<rect x="1684" y="408" width="5" height="21" rx="2.5" transform="rotate(90 1684 408)" fill="#040405"/>
<rect x="1838" y="366" width="5" height="21" rx="2.5" transform="rotate(90 1838 366)" fill="#040405"/>
<rect x="1803" y="388" width="5" height="21" rx="2.5" transform="rotate(90 1803 388)" fill="#040405"/>
<rect x="1745" y="497" width="5" height="21" rx="2.5" transform="rotate(90 1745 497)" fill="#040405"/>
<rect x="1754" y="441" width="5" height="21" rx="2.5" transform="rotate(90 1754 441)" fill="#040405"/>
<rect x="1628" y="438" width="5" height="21" rx="2.5" transform="rotate(90 1628 438)" fill="#040405"/>
<rect x="1660.14" y="470" width="2.28989" height="20" rx="1.14495" transform="rotate(45 1660.14 470)" fill="#040405"/>
<rect x="1675.14" y="481" width="2.28989" height="20" rx="1.14495" transform="rotate(45 1675.14 481)" fill="#040405"/>
<rect x="92.5491" y="450" width="2.28989" height="24.818" rx="1.14495" transform="rotate(45 92.5491 450)" fill="#040405"/>
<rect x="104.549" y="460" width="2.28989" height="24.818" rx="1.14495" transform="rotate(45 104.549 460)" fill="#040405"/>
<mask id="path-52-inside-1_403_2" fill="white">
<path d="M255.472 432.899C255.176 432.187 254.356 431.846 253.665 432.189C251.228 433.398 249.045 435.072 247.241 437.12C245.129 439.518 243.592 442.367 242.747 445.449C241.902 448.531 241.772 451.765 242.366 454.905C242.961 458.045 244.264 461.008 246.176 463.569C248.089 466.129 250.561 468.219 253.403 469.679C256.246 471.139 259.384 471.932 262.58 471.996C265.775 472.06 268.942 471.394 271.841 470.048C274.317 468.899 276.541 467.28 278.392 465.286C278.916 464.721 278.821 463.838 278.223 463.352V463.352C277.624 462.867 276.749 462.962 276.218 463.522C274.639 465.189 272.756 466.545 270.666 467.516C268.152 468.682 265.406 469.26 262.635 469.204C259.865 469.149 257.144 468.462 254.679 467.196C252.215 465.929 250.072 464.117 248.413 461.897C246.755 459.678 245.625 457.109 245.11 454.386C244.594 451.664 244.707 448.859 245.44 446.187C246.172 443.515 247.505 441.045 249.336 438.966C250.859 437.236 252.694 435.815 254.741 434.773C255.428 434.423 255.768 433.611 255.472 432.899V432.899Z"/>
</mask>
<path d="M255.472 432.899C255.176 432.187 254.356 431.846 253.665 432.189C251.228 433.398 249.045 435.072 247.241 437.12C245.129 439.518 243.592 442.367 242.747 445.449C241.902 448.531 241.772 451.765 242.366 454.905C242.961 458.045 244.264 461.008 246.176 463.569C248.089 466.129 250.561 468.219 253.403 469.679C256.246 471.139 259.384 471.932 262.58 471.996C265.775 472.06 268.942 471.394 271.841 470.048C274.317 468.899 276.541 467.28 278.392 465.286C278.916 464.721 278.821 463.838 278.223 463.352V463.352C277.624 462.867 276.749 462.962 276.218 463.522C274.639 465.189 272.756 466.545 270.666 467.516C268.152 468.682 265.406 469.26 262.635 469.204C259.865 469.149 257.144 468.462 254.679 467.196C252.215 465.929 250.072 464.117 248.413 461.897C246.755 459.678 245.625 457.109 245.11 454.386C244.594 451.664 244.707 448.859 245.44 446.187C246.172 443.515 247.505 441.045 249.336 438.966C250.859 437.236 252.694 435.815 254.741 434.773C255.428 434.423 255.768 433.611 255.472 432.899V432.899Z" fill="white" stroke="#040405" stroke-width="8" mask="url(#path-52-inside-1_403_2)"/>
<mask id="path-53-inside-2_403_2" fill="white">
<path d="M1473.47 435.899C1473.18 435.187 1472.36 434.846 1471.67 435.189C1469.23 436.398 1467.05 438.072 1465.24 440.12C1463.13 442.518 1461.59 445.367 1460.75 448.449C1459.9 451.531 1459.77 454.765 1460.37 457.905C1460.96 461.045 1462.26 464.008 1464.18 466.569C1466.09 469.129 1468.56 471.219 1471.4 472.679C1474.25 474.139 1477.38 474.932 1480.58 474.996C1483.77 475.06 1486.94 474.394 1489.84 473.048C1492.32 471.899 1494.54 470.28 1496.39 468.286C1496.92 467.721 1496.82 466.838 1496.22 466.352V466.352C1495.62 465.867 1494.75 465.962 1494.22 466.522C1492.64 468.189 1490.76 469.545 1488.67 470.516C1486.15 471.682 1483.41 472.26 1480.64 472.204C1477.87 472.149 1475.14 471.462 1472.68 470.196C1470.21 468.929 1468.07 467.117 1466.41 464.897C1464.75 462.678 1463.63 460.109 1463.11 457.386C1462.59 454.664 1462.71 451.859 1463.44 449.187C1464.17 446.515 1465.5 444.045 1467.34 441.966C1468.86 440.236 1470.69 438.815 1472.74 437.773C1473.43 437.423 1473.77 436.611 1473.47 435.899V435.899Z"/>
</mask>
<path d="M1473.47 435.899C1473.18 435.187 1472.36 434.846 1471.67 435.189C1469.23 436.398 1467.05 438.072 1465.24 440.12C1463.13 442.518 1461.59 445.367 1460.75 448.449C1459.9 451.531 1459.77 454.765 1460.37 457.905C1460.96 461.045 1462.26 464.008 1464.18 466.569C1466.09 469.129 1468.56 471.219 1471.4 472.679C1474.25 474.139 1477.38 474.932 1480.58 474.996C1483.77 475.06 1486.94 474.394 1489.84 473.048C1492.32 471.899 1494.54 470.28 1496.39 468.286C1496.92 467.721 1496.82 466.838 1496.22 466.352V466.352C1495.62 465.867 1494.75 465.962 1494.22 466.522C1492.64 468.189 1490.76 469.545 1488.67 470.516C1486.15 471.682 1483.41 472.26 1480.64 472.204C1477.87 472.149 1475.14 471.462 1472.68 470.196C1470.21 468.929 1468.07 467.117 1466.41 464.897C1464.75 462.678 1463.63 460.109 1463.11 457.386C1462.59 454.664 1462.71 451.859 1463.44 449.187C1464.17 446.515 1465.5 444.045 1467.34 441.966C1468.86 440.236 1470.69 438.815 1472.74 437.773C1473.43 437.423 1473.77 436.611 1473.47 435.899V435.899Z" fill="white" stroke="#040405" stroke-width="8" mask="url(#path-53-inside-2_403_2)"/>
<mask id="path-54-inside-3_403_2" fill="white">
<path d="M300.685 428.747C301.404 428.724 301.972 428.121 301.912 427.403C301.604 423.745 300.494 420.198 298.658 417.029C296.605 413.484 293.709 410.525 290.239 408.425C286.77 406.325 282.837 405.152 278.806 405.014C274.774 404.876 270.773 405.777 267.173 407.634C263.573 409.492 260.49 412.246 258.208 415.642C255.927 419.038 254.52 422.966 254.119 427.063C253.718 431.16 254.335 435.295 255.913 439.085C257.316 442.455 259.44 445.456 262.121 447.871C262.671 448.366 263.519 448.264 263.972 447.677V447.677C264.411 447.108 264.311 446.294 263.779 445.81C261.422 443.668 259.554 441.017 258.315 438.042C256.909 434.665 256.359 430.98 256.717 427.328C257.074 423.676 258.328 420.176 260.361 417.149C262.395 414.123 265.143 411.668 268.351 410.013C271.56 408.357 275.125 407.554 278.718 407.677C282.311 407.8 285.816 408.846 288.908 410.718C292 412.589 294.581 415.226 296.411 418.385C298.023 421.168 299.007 424.277 299.298 427.486C299.364 428.205 299.963 428.771 300.685 428.747V428.747Z"/>
</mask>
<path d="M300.685 428.747C301.404 428.724 301.972 428.121 301.912 427.403C301.604 423.745 300.494 420.198 298.658 417.029C296.605 413.484 293.709 410.525 290.239 408.425C286.77 406.325 282.837 405.152 278.806 405.014C274.774 404.876 270.773 405.777 267.173 407.634C263.573 409.492 260.49 412.246 258.208 415.642C255.927 419.038 254.52 422.966 254.119 427.063C253.718 431.16 254.335 435.295 255.913 439.085C257.316 442.455 259.44 445.456 262.121 447.871C262.671 448.366 263.519 448.264 263.972 447.677V447.677C264.411 447.108 264.311 446.294 263.779 445.81C261.422 443.668 259.554 441.017 258.315 438.042C256.909 434.665 256.359 430.98 256.717 427.328C257.074 423.676 258.328 420.176 260.361 417.149C262.395 414.123 265.143 411.668 268.351 410.013C271.56 408.357 275.125 407.554 278.718 407.677C282.311 407.8 285.816 408.846 288.908 410.718C292 412.589 294.581 415.226 296.411 418.385C298.023 421.168 299.007 424.277 299.298 427.486C299.364 428.205 299.963 428.771 300.685 428.747V428.747Z" fill="white" stroke="#040405" stroke-width="8" mask="url(#path-54-inside-3_403_2)"/>
<mask id="path-55-inside-4_403_2" fill="white">
<path d="M1518.68 431.747C1519.4 431.724 1519.97 431.121 1519.91 430.403C1519.6 426.745 1518.49 423.198 1516.66 420.029C1514.6 416.484 1511.71 413.525 1508.24 411.425C1504.77 409.325 1500.84 408.152 1496.81 408.014C1492.77 407.876 1488.77 408.777 1485.17 410.634C1481.57 412.492 1478.49 415.246 1476.21 418.642C1473.93 422.038 1472.52 425.966 1472.12 430.063C1471.72 434.16 1472.33 438.295 1473.91 442.085C1475.32 445.455 1477.44 448.456 1480.12 450.871C1480.67 451.366 1481.52 451.264 1481.97 450.677V450.677C1482.41 450.108 1482.31 449.294 1481.78 448.81C1479.42 446.668 1477.55 444.017 1476.32 441.042C1474.91 437.665 1474.36 433.98 1474.72 430.328C1475.07 426.676 1476.33 423.176 1478.36 420.149C1480.39 417.123 1483.14 414.668 1486.35 413.013C1489.56 411.357 1493.12 410.554 1496.72 410.677C1500.31 410.8 1503.82 411.846 1506.91 413.718C1510 415.589 1512.58 418.226 1514.41 421.385C1516.02 424.168 1517.01 427.277 1517.3 430.486C1517.36 431.205 1517.96 431.771 1518.68 431.747V431.747Z"/>
</mask>
<path d="M1518.68 431.747C1519.4 431.724 1519.97 431.121 1519.91 430.403C1519.6 426.745 1518.49 423.198 1516.66 420.029C1514.6 416.484 1511.71 413.525 1508.24 411.425C1504.77 409.325 1500.84 408.152 1496.81 408.014C1492.77 407.876 1488.77 408.777 1485.17 410.634C1481.57 412.492 1478.49 415.246 1476.21 418.642C1473.93 422.038 1472.52 425.966 1472.12 430.063C1471.72 434.16 1472.33 438.295 1473.91 442.085C1475.32 445.455 1477.44 448.456 1480.12 450.871C1480.67 451.366 1481.52 451.264 1481.97 450.677V450.677C1482.41 450.108 1482.31 449.294 1481.78 448.81C1479.42 446.668 1477.55 444.017 1476.32 441.042C1474.91 437.665 1474.36 433.98 1474.72 430.328C1475.07 426.676 1476.33 423.176 1478.36 420.149C1480.39 417.123 1483.14 414.668 1486.35 413.013C1489.56 411.357 1493.12 410.554 1496.72 410.677C1500.31 410.8 1503.82 411.846 1506.91 413.718C1510 415.589 1512.58 418.226 1514.41 421.385C1516.02 424.168 1517.01 427.277 1517.3 430.486C1517.36 431.205 1517.96 431.771 1518.68 431.747V431.747Z" fill="white" stroke="#040405" stroke-width="8" mask="url(#path-55-inside-4_403_2)"/>
<mask id="path-56-inside-5_403_2" fill="white">
<path d="M277.748 463.336C277.155 463.631 276.912 464.352 277.235 464.93C279.491 468.971 282.808 472.329 286.839 474.635C291.217 477.139 296.239 478.289 301.27 477.938C306.301 477.588 311.116 475.754 315.105 472.668C319.093 469.582 322.078 465.382 323.679 460.6C325.281 455.817 325.429 450.667 324.104 445.801C322.779 440.935 320.041 436.571 316.236 433.261C312.431 429.951 307.73 427.843 302.727 427.205C298.121 426.617 293.45 427.299 289.215 429.166C288.609 429.433 288.369 430.155 288.664 430.748V430.748C288.959 431.34 289.678 431.578 290.285 431.314C294.094 429.657 298.288 429.055 302.424 429.582C306.956 430.161 311.216 432.07 314.663 435.069C318.111 438.068 320.591 442.022 321.792 446.431C322.992 450.84 322.858 455.506 321.407 459.838C319.955 464.171 317.252 467.976 313.638 470.772C310.024 473.569 305.662 475.23 301.104 475.548C296.545 475.865 291.995 474.823 288.029 472.554C284.41 470.484 281.425 467.477 279.382 463.86C279.057 463.284 278.34 463.041 277.748 463.336V463.336Z"/>
</mask>
<path d="M277.748 463.336C277.155 463.631 276.912 464.352 277.235 464.93C279.491 468.971 282.808 472.329 286.839 474.635C291.217 477.139 296.239 478.289 301.27 477.938C306.301 477.588 311.116 475.754 315.105 472.668C319.093 469.582 322.078 465.382 323.679 460.6C325.281 455.817 325.429 450.667 324.104 445.801C322.779 440.935 320.041 436.571 316.236 433.261C312.431 429.951 307.73 427.843 302.727 427.205C298.121 426.617 293.45 427.299 289.215 429.166C288.609 429.433 288.369 430.155 288.664 430.748V430.748C288.959 431.34 289.678 431.578 290.285 431.314C294.094 429.657 298.288 429.055 302.424 429.582C306.956 430.161 311.216 432.07 314.663 435.069C318.111 438.068 320.591 442.022 321.792 446.431C322.992 450.84 322.858 455.506 321.407 459.838C319.955 464.171 317.252 467.976 313.638 470.772C310.024 473.569 305.662 475.23 301.104 475.548C296.545 475.865 291.995 474.823 288.029 472.554C284.41 470.484 281.425 467.477 279.382 463.86C279.057 463.284 278.34 463.041 277.748 463.336V463.336Z" fill="white" stroke="#040405" stroke-width="4" mask="url(#path-56-inside-5_403_2)"/>
<mask id="path-57-inside-6_403_2" fill="white">
<path d="M1495.75 466.336C1495.16 466.631 1494.91 467.352 1495.23 467.93C1497.49 471.971 1500.81 475.329 1504.84 477.635C1509.22 480.139 1514.24 481.289 1519.27 480.938C1524.3 480.588 1529.12 478.754 1533.1 475.668C1537.09 472.582 1540.08 468.382 1541.68 463.6C1543.28 458.817 1543.43 453.667 1542.1 448.801C1540.78 443.935 1538.04 439.571 1534.24 436.261C1530.43 432.951 1525.73 430.843 1520.73 430.205C1516.12 429.617 1511.45 430.299 1507.21 432.166C1506.61 432.433 1506.37 433.155 1506.66 433.748V433.748C1506.96 434.34 1507.68 434.578 1508.28 434.314C1512.09 432.657 1516.29 432.055 1520.42 432.582C1524.96 433.161 1529.22 435.07 1532.66 438.069C1536.11 441.068 1538.59 445.022 1539.79 449.431C1540.99 453.84 1540.86 458.506 1539.41 462.838C1537.96 467.171 1535.25 470.976 1531.64 473.772C1528.02 476.569 1523.66 478.23 1519.1 478.548C1514.55 478.865 1510 477.823 1506.03 475.554C1502.41 473.484 1499.43 470.477 1497.38 466.86C1497.06 466.284 1496.34 466.041 1495.75 466.336V466.336Z"/>
</mask>
<path d="M1495.75 466.336C1495.16 466.631 1494.91 467.352 1495.23 467.93C1497.49 471.971 1500.81 475.329 1504.84 477.635C1509.22 480.139 1514.24 481.289 1519.27 480.938C1524.3 480.588 1529.12 478.754 1533.1 475.668C1537.09 472.582 1540.08 468.382 1541.68 463.6C1543.28 458.817 1543.43 453.667 1542.1 448.801C1540.78 443.935 1538.04 439.571 1534.24 436.261C1530.43 432.951 1525.73 430.843 1520.73 430.205C1516.12 429.617 1511.45 430.299 1507.21 432.166C1506.61 432.433 1506.37 433.155 1506.66 433.748V433.748C1506.96 434.34 1507.68 434.578 1508.28 434.314C1512.09 432.657 1516.29 432.055 1520.42 432.582C1524.96 433.161 1529.22 435.07 1532.66 438.069C1536.11 441.068 1538.59 445.022 1539.79 449.431C1540.99 453.84 1540.86 458.506 1539.41 462.838C1537.96 467.171 1535.25 470.976 1531.64 473.772C1528.02 476.569 1523.66 478.23 1519.1 478.548C1514.55 478.865 1510 477.823 1506.03 475.554C1502.41 473.484 1499.43 470.477 1497.38 466.86C1497.06 466.284 1496.34 466.041 1495.75 466.336V466.336Z" fill="white" stroke="#040405" stroke-width="4" mask="url(#path-57-inside-6_403_2)"/>
<rect x="277" y="440" width="3" height="77" rx="1.5" fill="#040405"/>
<rect x="1495" y="443" width="3" height="77" rx="1.5" fill="#040405"/>
<rect x="288.115" y="446.441" width="3" height="15.7193" rx="1.5" transform="rotate(45 288.115 446.441)" fill="#040405"/>
<rect x="1506.12" y="449.441" width="3" height="15.7193" rx="1.5" transform="rotate(45 1506.12 449.441)" fill="#040405"/>
<rect width="3" height="15.7193" rx="1.5" transform="matrix(0.707107 -0.707107 -0.707107 -0.707107 278.115 451.237)" fill="#040405"/>
<rect width="3" height="15.7193" rx="1.5" transform="matrix(0.707107 -0.707107 -0.707107 -0.707107 1496.12 454.237)" fill="#040405"/>
<path fill-rule="evenodd" clip-rule="evenodd" d="M242.383 508V510C242.383 510.552 241.936 511 241.383 511H239.383C238.831 511 238.383 510.552 238.383 510V508H237.001C236.623 508 236.276 507.786 236.107 507.447C235.774 506.782 236.258 506 237.001 506H242.383V505H239.383C238.831 505 238.383 504.552 238.383 504V500C238.383 499.448 238.831 499 239.383 499H264.383C264.936 499 265.383 499.448 265.383 500V504C265.383 504.552 264.936 505 264.383 505H261.383V506H265.765C266.509 506 266.992 506.782 266.66 507.447C266.49 507.786 266.144 508 265.765 508H265.383V510C265.383 510.552 264.936 511 264.383 511H262.383C261.831 511 261.383 510.552 261.383 510V508H242.383ZM239.383 500H264.383V504H239.383V500ZM257.383 505H246.383V506H257.383V505Z" fill="#040405"/>
<rect x="252" y="71" width="148" height="56" rx="28" stroke="#040405" stroke-width="4"/>
<mask id="path-66-inside-7_403_2" fill="white">
<path d="M297 139C297 145.075 301.925 150 308 150H346C352.075 150 357 145.075 357 139V127C357 126.448 356.552 126 356 126H308C301.925 126 297 130.925 297 137V139Z"/>
</mask>
<path d="M297 139C297 145.075 301.925 150 308 150H346C352.075 150 357 145.075 357 139V127C357 126.448 356.552 126 356 126H308C301.925 126 297 130.925 297 137V139Z" stroke="#040405" stroke-width="8" mask="url(#path-66-inside-7_403_2)"/>
<mask id="path-67-inside-8_403_2" fill="white">
<path d="M326 134C326 136.761 328.239 139 331 139H350C353.866 139 357 135.866 357 132V127C357 126.448 356.552 126 356 126H326V134Z"/>
</mask>
<path d="M326 134C326 136.761 328.239 139 331 139H350C353.866 139 357 135.866 357 132V127C357 126.448 356.552 126 356 126H326V134Z" stroke="#040405" stroke-width="8" mask="url(#path-67-inside-8_403_2)"/>
<rect x="253.5" y="105.5" width="22" height="2" rx="1" fill="#040405" stroke="#040405"/>
<rect x="226.5" y="94.5" width="12" height="3" rx="1.5" fill="#040405" stroke="#040405"/>
<rect x="226.5" y="100.5" width="12" height="3" rx="1.5" fill="#040405" stroke="#040405"/>
<rect x="368.5" y="85.5" width="29" height="2" rx="1" fill="#040405" stroke="#040405"/>
<rect x="254.5" y="111.5" width="45" height="2" rx="1" fill="#040405" stroke="#040405"/>
<rect x="335.5" y="80.5" width="59" height="2" rx="1" fill="#040405" stroke="#040405"/>
<path d="M251.6 99.8L227.6 117.8C226.941 118.294 226 117.824 226 117L226 81C226 80.176 226.941 79.7056 227.6 80.2L251.6 98.2C252.133 98.6 252.133 99.4 251.6 99.8Z" stroke="black" stroke-width="4"/>
<circle cx="179.5" cy="487.5" r="3.5" fill="#040405"/>
<path d="M472.5 483.5H494.379L472.5 505.379V483.5ZM474.621 507.5L496.5 485.621V507.5H474.621Z" stroke="#040405" stroke-width="3"/>
<path d="M496.5 483.5H518.379L496.5 505.379V483.5ZM498.621 507.5L520.5 485.621V507.5H498.621Z" stroke="#040405" stroke-width="3"/>
<path d="M520.5 483.5H542.379L520.5 505.379V483.5ZM522.621 507.5L544.5 485.621V507.5H522.621Z" stroke="#040405" stroke-width="3"/>
<path d="M544.5 483.5H566.379L544.5 505.379V483.5ZM546.621 507.5L568.5 485.621V507.5H546.621Z" stroke="#040405" stroke-width="3"/>
<path d="M568.5 483.5H590.379L568.5 505.379V483.5ZM570.621 507.5L592.5 485.621V507.5H570.621Z" stroke="#040405" stroke-width="3"/>
<path d="M592.5 483.5H614.379L592.5 505.379V483.5ZM594.621 507.5L616.5 485.621V507.5H594.621Z" stroke="#040405" stroke-width="3"/>
<path d="M616.5 483.5H638.379L616.5 505.379V483.5ZM618.621 507.5L640.5 485.621V507.5H618.621Z" stroke="#040405" stroke-width="3"/>
<path d="M640.5 483.5H662.379L640.5 505.379V483.5ZM642.621 507.5L664.5 485.621V507.5H642.621Z" stroke="#040405" stroke-width="3"/>
<path d="M664.5 483.5H686.379L664.5 505.379V483.5ZM666.621 507.5L688.5 485.621V507.5H666.621Z" stroke="#040405" stroke-width="3"/>
<path d="M826.5 483.5H848.379L826.5 505.379V483.5ZM828.621 507.5L850.5 485.621V507.5H828.621Z" stroke="#040405" stroke-width="3"/>
<path d="M850.5 483.5H872.379L850.5 505.379V483.5ZM852.621 507.5L874.5 485.621V507.5H852.621Z" stroke="#040405" stroke-width="3"/>
<path d="M874.5 483.5H896.379L874.5 505.379V483.5ZM876.621 507.5L898.5 485.621V507.5H876.621Z" stroke="#040405" stroke-width="3"/>
<path d="M898.5 483.5H920.379L898.5 505.379V483.5ZM900.621 507.5L922.5 485.621V507.5H900.621Z" stroke="#040405" stroke-width="3"/>
<path d="M922.5 483.5H944.379L922.5 505.379V483.5ZM924.621 507.5L946.5 485.621V507.5H924.621Z" stroke="#040405" stroke-width="3"/>
<path d="M946.5 483.5H968.379L946.5 505.379V483.5ZM948.621 507.5L970.5 485.621V507.5H948.621Z" stroke="#040405" stroke-width="3"/>
<path d="M970.5 483.5H992.379L970.5 505.379V483.5ZM972.621 507.5L994.5 485.621V507.5H972.621Z" stroke="#040405" stroke-width="3"/>
<path d="M1143.5 483.5H1165.38L1143.5 505.379V483.5ZM1145.62 507.5L1167.5 485.621V507.5H1145.62Z" stroke="#040405" stroke-width="3"/>
<path d="M1288.5 483.5H1310.38L1288.5 505.379V483.5ZM1290.62 507.5L1312.5 485.621V507.5H1290.62Z" stroke="#040405" stroke-width="3"/>
<path d="M688.5 483.5H710.379L688.5 505.379V483.5ZM690.621 507.5L712.5 485.621V507.5H690.621Z" stroke="#040405" stroke-width="3"/>
<path d="M1312.5 483.5H1334.38L1312.5 505.379V483.5ZM1314.62 507.5L1336.5 485.621V507.5H1314.62Z" stroke="#040405" stroke-width="3"/>
<path d="M712.5 483.5H734.379L712.5 505.379V483.5ZM714.621 507.5L736.5 485.621V507.5H714.621Z" stroke="#040405" stroke-width="3"/>
<path d="M1336.5 483.5H1358.38L1336.5 505.379V483.5ZM1338.62 507.5L1360.5 485.621V507.5H1338.62Z" stroke="#040405" stroke-width="3"/>
<path d="M736.5 483.5H758.379L736.5 505.379V483.5ZM738.621 507.5L760.5 485.621V507.5H738.621Z" stroke="#040405" stroke-width="3"/>
<path d="M1360.5 483.5H1382.38L1360.5 505.379V483.5ZM1362.62 507.5L1384.5 485.621V507.5H1362.62Z" stroke="#040405" stroke-width="3"/>
<path d="M760.5 483.5H782.379L760.5 505.379V483.5ZM762.621 507.5L784.5 485.621V507.5H762.621Z" stroke="#040405" stroke-width="3"/>
<path d="M1384.5 483.5H1406.38L1384.5 505.379V483.5ZM1386.62 507.5L1408.5 485.621V507.5H1386.62Z" stroke="#040405" stroke-width="3"/>
<path d="M1551 493H1564.59L1551 506.586V493ZM1552.41 508L1566 494.414V508H1552.41Z" stroke="#040405" stroke-width="2"/>
<path d="M1551 478H1564.59L1551 491.586V478ZM1552.41 493L1566 479.414V493H1552.41Z" stroke="#040405" stroke-width="2"/>
<path d="M1551 463H1564.59L1551 476.586V463ZM1552.41 478L1566 464.414V478H1552.41Z" stroke="#040405" stroke-width="2"/>
<path d="M1551 448H1564.59L1551 461.586V448ZM1552.41 463L1566 449.414V463H1552.41Z" stroke="#040405" stroke-width="2"/>
<path d="M1551 373H1564.59L1551 386.586V373ZM1552.41 388L1566 374.414V388H1552.41Z" stroke="#040405" stroke-width="2"/>
<path d="M1551 388H1564.59L1551 401.586V388ZM1552.41 403L1566 389.414V403H1552.41Z" stroke="#040405" stroke-width="2"/>
<path d="M1551 403H1564.59L1551 416.586V403ZM1552.41 418L1566 404.414V418H1552.41Z" stroke="#040405" stroke-width="2"/>
<path d="M1551 418H1564.59L1551 431.586V418ZM1552.41 433L1566 419.414V433H1552.41Z" stroke="#040405" stroke-width="2"/>
<path d="M1551 433H1564.59L1551 446.586V433ZM1552.41 448L1566 434.414V448H1552.41Z" stroke="#040405" stroke-width="2"/>
<path d="M1551 358H1564.59L1551 371.586V358ZM1552.41 373L1566 359.414V373H1552.41Z" stroke="#040405" stroke-width="2"/>
<rect x="1169" y="482" width="118" height="27" fill="#040405"/>
<rect x="996" y="482" width="146" height="27" fill="#040405"/>
<rect x="1410" y="482" width="39" height="27" fill="#040405"/>
<rect x="786" y="482" width="39" height="27" fill="#040405"/>
<path d="M1449 490H1461V509H1449V490Z" fill="#040405"/>
<path d="M1461 497H1473V509H1461V497Z" fill="#040405"/>
<path d="M1473 504H1485V509H1473V504Z" fill="#040405"/>
<path d="M471 490H459V509H471V490Z" fill="#040405"/>
<path d="M459 497H447V509H459V497Z" fill="#040405"/>
<path d="M447 504H435V509H447V504Z" fill="#040405"/>
<path d="M-6.68799 379.496C-6.68799 377.096 -6.17599 374.92 -5.15199 372.968C-4.09599 371.048 -2.63999 369.528 -0.783994 368.408C1.10401 367.288 3.28001 366.728 5.74401 366.728C8.27201 366.728 10.464 367.272 12.32 368.36C14.176 369.48 15.616 371 16.64 372.92C17.696 374.84 18.224 377.032 18.224 379.496C18.224 381.64 17.904 383.464 17.264 384.968C16.624 386.472 15.728 387.688 14.576 388.616C13.456 389.544 12.144 390.216 10.64 390.632C9.136 391.08 7.504 391.304 5.74401 391.304C4.33601 391.304 2.89601 391.08 1.42401 390.632C-0.0159945 390.184 -1.35999 389.496 -2.608 388.568C-3.82399 387.64 -4.81599 386.424 -5.58399 384.92C-6.31999 383.416 -6.688 381.608 -6.68799 379.496ZM-1.88799 381.512C-1.88799 383.4 -1.56799 385.032 -0.927995 386.408C-0.287995 387.784 0.608006 388.84 1.76001 389.576C2.91201 390.312 4.24001 390.68 5.74401 390.68C7.37601 390.68 8.75201 390.296 9.87201 389.528C11.024 388.792 11.904 387.736 12.512 386.36C13.12 385.016 13.424 383.4 13.424 381.512C13.424 378.856 12.72 376.792 11.312 375.32C9.90401 373.848 8.04801 373.112 5.74401 373.112C4.208 373.112 2.86401 373.464 1.71201 374.168C0.592006 374.872 -0.287995 375.848 -0.927995 377.096C-1.56799 378.376 -1.88799 379.848 -1.88799 381.512ZM27.296 390.68V396.92H-6.16V391.112C-5.424 391.016 -4.48 390.92 -3.328 390.824C-2.144 390.728 -1.04 390.68 -0.015995 390.68H27.296Z" fill="black"/>
<path d="M1.76 421.07V427.118C0.128004 426.862 -1.328 426.174 -2.608 425.054C-3.888 423.966 -4.896 422.478 -5.632 420.59C-6.368 418.702 -6.736 416.398 -6.736 413.678C-6.736 410.638 -6.256 407.95 -5.296 405.614C-4.304 403.278 -2.88 401.454 -1.024 400.142C0.832005 398.83 3.072 398.174 5.696 398.174C8.32001 398.174 10.56 398.814 12.416 400.094C14.304 401.374 15.744 403.15 16.736 405.422C17.728 407.726 18.224 410.414 18.224 413.486C18.224 416.622 17.728 419.23 16.736 421.31C15.744 423.39 14.24 424.926 12.224 425.918C10.24 426.942 7.696 427.374 4.592 427.214L4.592 404.462C3.376 404.622 2.272 405.07 1.28 405.806C0.288005 406.574 -0.495996 407.598 -1.072 408.878C-1.648 410.19 -1.936 411.742 -1.936 413.534C-1.936 415.518 -1.6 417.166 -0.927997 418.478C-0.223996 419.822 0.672004 420.686 1.76 421.07ZM13.472 413.198C13.472 410.894 12.96 409.022 11.936 407.582C10.944 406.142 9.71201 405.214 8.24001 404.798L8.24 421.022C9.84 420.862 11.104 420.094 12.032 418.718C12.992 417.374 13.472 415.534 13.472 413.198Z" fill="black"/>
<path d="M1.76 426.577V432.337C0.672004 432.689 -0.223996 433.409 -0.927997 434.497C-1.6 435.617 -1.936 437.073 -1.936 438.865C-1.936 440.081 -1.824 441.025 -1.6 441.697C-1.376 442.369 -1.056 442.833 -0.639997 443.089C-0.191997 443.345 0.304003 443.473 0.848003 443.473C1.52 443.473 2.032 443.265 2.384 442.849C2.768 442.433 3.072 441.793 3.296 440.929C3.52 440.065 3.728 438.961 3.92 437.617C4.144 436.273 4.416 434.977 4.736 433.729C5.056 432.481 5.472 431.377 5.984 430.417C6.528 429.457 7.2 428.689 8 428.113C8.832 427.569 9.84 427.297 11.024 427.297C12.176 427.297 13.2 427.569 14.096 428.113C14.992 428.689 15.744 429.473 16.352 430.465C16.96 431.489 17.424 432.673 17.744 434.017C18.064 435.393 18.224 436.865 18.224 438.433C18.224 440.801 17.872 442.769 17.168 444.337C16.496 445.905 15.536 447.073 14.288 447.841C13.072 448.641 11.664 449.041 10.064 449.041V443.521C11.248 443.265 12.096 442.753 12.608 441.985C13.152 441.217 13.424 440.033 13.424 438.433C13.424 436.865 13.184 435.681 12.704 434.881C12.224 434.081 11.568 433.681 10.736 433.681C10.064 433.681 9.536 433.921 9.152 434.401C8.8 434.913 8.512 435.649 8.288 436.609C8.064 437.601 7.824 438.833 7.568 440.305C7.312 441.553 7.024 442.737 6.704 443.857C6.384 445.009 5.968 446.033 5.456 446.929C4.976 447.825 4.32 448.529 3.488 449.041C2.688 449.585 1.664 449.857 0.416002 449.857C-1.12 449.857 -2.416 449.409 -3.472 448.513C-4.528 447.649 -5.344 446.401 -5.92 444.769C-6.464 443.137 -6.736 441.185 -6.736 438.913C-6.736 436.897 -6.528 435.153 -6.112 433.681C-5.664 432.241 -5.104 431.041 -4.432 430.081C-3.728 429.121 -2.992 428.369 -2.224 427.825C-1.424 427.313 -0.671997 426.961 0.0320034 426.769C0.736003 426.577 1.312 426.513 1.76 426.577Z" fill="black"/>
<path d="M17.696 450.695V456.935H-6.16V450.695H17.696Z" fill="black"/>
<path d="M-2.512 470.738C-2.512 468.146 -2.128 465.858 -1.36 463.874C-0.559999 461.922 0.608003 460.402 2.144 459.314C3.68 458.226 5.536 457.682 7.712 457.682C9.856 457.682 11.712 458.21 13.28 459.266C14.848 460.322 16.064 461.826 16.928 463.778C17.792 465.762 18.224 468.082 18.224 470.738C18.224 471.474 18.176 472.178 18.08 472.85C17.984 473.554 17.856 474.242 17.696 474.914L17.648 486.962H12.944C12.912 485.33 13.104 483.666 13.52 481.97C13.968 480.306 14.448 478.834 14.96 477.554L15.296 477.41C14.784 478.498 14.144 479.522 13.376 480.482C12.64 481.442 11.776 482.21 10.784 482.786C9.824 483.394 8.704 483.698 7.424 483.698C5.344 483.698 3.552 483.17 2.048 482.114C0.576 481.058 -0.559999 479.554 -1.36 477.602C-2.128 475.682 -2.512 473.394 -2.512 470.738ZM-16 478.754H-14.848C-13.376 478.754 -12.352 478.274 -11.776 477.314C-11.2 476.386 -10.912 475.106 -10.912 473.474L-10.912 466.034C-10.912 464.594 -10.8 463.378 -10.576 462.386C-10.352 461.426 -10.032 460.658 -9.616 460.082C-9.2 459.506 -8.704 459.09 -8.128 458.834C-7.584 458.578 -6.992 458.45 -6.352 458.45C-5.072 458.45 -4.112 458.866 -3.472 459.698C-2.8 460.53 -2.352 461.65 -2.128 463.058C-1.904 464.466 -1.856 466.018 -1.984 467.714L-2.512 470.738C-2.576 468.722 -2.752 467.218 -3.04 466.226C-3.296 465.266 -3.824 464.786 -4.624 464.786C-5.104 464.786 -5.488 464.978 -5.776 465.362C-6.032 465.746 -6.16 466.29 -6.16 466.994V474.818C-6.16 476.962 -6.384 478.786 -6.832 480.29C-7.312 481.826 -8.096 482.994 -9.184 483.794C-10.304 484.594 -11.824 484.994 -13.744 484.994H-16L-16 478.754ZM2 470.738C2 472.114 2.224 473.314 2.672 474.338C3.12 475.394 3.76 476.21 4.592 476.786C5.456 477.362 6.48 477.65 7.664 477.65C8.88 477.65 9.92 477.362 10.784 476.786C11.648 476.21 12.304 475.41 12.752 474.386C13.232 473.362 13.472 472.146 13.472 470.738C13.472 469.362 13.232 468.146 12.752 467.09C12.304 466.034 11.648 465.218 10.784 464.642C9.92 464.066 8.88 463.778 7.664 463.778C6.48 463.778 5.456 464.066 4.592 464.642C3.76 465.218 3.12 466.018 2.672 467.042C2.224 468.098 2 469.33 2 470.738Z" fill="black"/>
<path d="M17.696 486.718V492.958H-6.16V486.718H17.696ZM18.224 504.046C18.224 505.518 18.032 506.878 17.648 508.126C17.264 509.374 16.672 510.462 15.872 511.39C15.072 512.318 14.048 513.038 12.8 513.55C11.584 514.062 10.128 514.318 8.432 514.318H-6.16V508.078H7.328C9.344 508.078 10.816 507.582 11.744 506.59C12.704 505.63 13.184 504.046 13.184 501.838C13.184 500.174 12.864 498.67 12.224 497.326C11.584 495.982 10.768 494.894 9.776 494.062C8.816 493.23 7.808 492.75 6.752 492.622L9.2 492.574C10.32 492.734 11.408 493.102 12.464 493.678C13.52 494.254 14.48 495.022 15.344 495.982C16.24 496.974 16.944 498.142 17.456 499.486C17.968 500.83 18.224 502.35 18.224 504.046Z" fill="black"/>
<path d="M1581.61 481.048C1583.48 481.264 1585.08 481.924 1586.4 483.028C1587.72 484.132 1588.73 485.632 1589.42 487.528C1590.12 489.424 1590.47 491.68 1590.47 494.296C1590.47 496.48 1590.22 498.484 1589.71 500.308C1589.21 502.108 1588.45 503.668 1587.44 504.988C1586.44 506.284 1585.19 507.292 1583.7 508.012C1582.19 508.732 1580.42 509.092 1578.41 509.092C1576.39 509.092 1574.63 508.732 1573.12 508.012C1571.6 507.292 1570.34 506.284 1569.34 504.988C1568.3 503.668 1567.54 502.108 1567.03 500.308C1566.5 498.484 1566.24 496.48 1566.24 494.296C1566.24 491.68 1566.6 489.424 1567.32 487.528C1568.04 485.608 1569.07 484.096 1570.42 482.992C1571.74 481.888 1573.34 481.24 1575.24 481.048L1575.24 485.8C1574.23 486.112 1573.37 486.64 1572.65 487.384C1571.9 488.104 1571.34 489.04 1570.96 490.192C1570.57 491.344 1570.38 492.712 1570.38 494.296C1570.38 496.264 1570.69 497.992 1571.32 499.48C1571.92 500.968 1572.82 502.12 1574.02 502.936C1575.19 503.752 1576.66 504.16 1578.41 504.16C1580.14 504.16 1581.59 503.752 1582.76 502.936C1583.94 502.12 1584.84 500.968 1585.46 499.48C1586.06 497.992 1586.36 496.264 1586.36 494.296C1586.36 492.712 1586.17 491.356 1585.79 490.228C1585.4 489.076 1584.85 488.14 1584.13 487.42C1583.41 486.676 1582.57 486.136 1581.61 485.8L1581.61 481.048ZM1590 481.056L1566.71 481.056L1566.71 465.252C1566.71 463.452 1566.96 461.892 1567.46 460.572C1567.94 459.228 1568.71 458.184 1569.77 457.44C1570.8 456.696 1572.13 456.324 1573.76 456.324C1574.87 456.324 1575.8 456.516 1576.57 456.9C1577.34 457.284 1577.96 457.824 1578.44 458.52C1578.92 459.192 1579.3 459.972 1579.56 460.86C1579.8 461.748 1579.96 462.696 1580.03 463.704L1579.74 464.208C1579.76 462.528 1579.91 461.148 1580.17 460.068C1580.41 458.988 1580.87 458.184 1581.54 457.656C1582.19 457.104 1583.16 456.828 1584.46 456.828L1590 456.828L1590 461.616L1584.78 461.616C1583.89 461.616 1583.21 461.772 1582.73 462.084C1582.22 462.396 1581.88 462.96 1581.68 463.776C1581.49 464.568 1581.4 465.72 1581.4 467.232L1581.4 476.268L1590 476.268L1590 481.056ZM1577.65 476.268L1577.65 465.252C1577.65 463.908 1577.33 462.888 1576.68 462.192C1576.03 461.472 1575.16 461.112 1574.05 461.112C1573 461.112 1572.19 461.472 1571.64 462.192C1571.09 462.888 1570.81 463.908 1570.81 465.252L1570.81 476.268L1577.65 476.268ZM1580.28 451.206L1586 451.206L1586 433.242L1590 433.242L1590 455.994L1566.71 455.994L1566.71 433.278L1570.7 433.278L1570.7 451.206L1576.5 451.206L1576.5 436.518L1580.28 436.518L1580.28 451.206ZM1584.92 429.37L1580.93 429.37L1580.93 413.962L1584.92 413.962L1584.92 429.37ZM1590 435.166L1566.71 424.222L1566.71 419.038L1590 407.986L1590 413.206L1569.01 422.782L1569.01 420.478L1590 429.982L1590 435.166ZM1566.71 414.285L1566.71 389.733L1570.7 389.733L1570.7 414.285L1566.71 414.285ZM1570.2 404.385L1570.2 399.597L1590 399.597L1590 404.385L1570.2 404.385ZM1580.28 386.145L1586 386.145L1586 368.181L1590 368.181L1590 390.933L1566.71 390.933L1566.71 368.217L1570.7 368.217L1570.7 386.145L1576.5 386.145L1576.5 371.457L1580.28 371.457L1580.28 386.145Z" fill="black"/>
<path d="M1551 358L1526.5 432.5" stroke="#040405" stroke-width="2"/>
<path d="M1508.5 479L1497.5 509.5" stroke="#040405" stroke-width="2"/>
</g>
<defs>
<clipPath id="clip0_403_2">
<rect width="1920" height="539" fill="white"/>
</clipPath>
</defs>
</svg>
