<svg width="192" height="192" viewBox="0 0 192 192" fill="none" xmlns="http://www.w3.org/2000/svg">
<path d="M16.0391 152H176.039V168H16.0391V152ZM16.0391 40L56.0391 68L96.0392 16L136.039 68L176.039 40V136H16.0391V40ZM32.0391 70.7305V120H160.039V70.7305L132.683 89.8792L96.0392 42.2419L59.3948 89.8792L32.0391 70.7305Z" fill="url(#paint0_linear_450_244)"/>
<path d="M176 33C176 33 176.428 37.1293 178.15 38.8504C179.871 40.5715 184 41 184 41C184 41 179.871 41.4285 178.15 43.1496C176.428 44.8707 176 49 176 49C176 49 175.572 44.8707 173.85 43.1496C172.129 41.4285 168 41 168 41C168 41 172.129 40.5715 173.85 38.8504C175.572 37.1293 176 33 176 33Z" fill="white"/>
<path d="M16 71C16 71 16.6962 77.71 19.4931 80.5069C22.29 83.3037 29 84 29 84C29 84 22.29 84.6962 19.4931 87.4931C16.6962 90.29 16 97 16 97C16 97 15.3037 90.29 12.5069 87.4931C9.71003 84.6962 3 84 3 84C3 84 9.71003 83.3037 12.5069 80.5069C15.3037 77.71 16 71 16 71Z" fill="white"/>
<defs>
<linearGradient id="paint0_linear_450_244" x1="176" y1="16" x2="16" y2="168" gradientUnits="userSpaceOnUse">
<stop stop-color="#FFF7D6"/>
<stop offset="0.481855" stop-color="#FFD014"/>
<stop offset="1" stop-color="#695812"/>
</linearGradient>
</defs>
</svg>
